<?xml version="1.0" standalone="no"?><!DOCTYPE svg PUBLIC "-//W3C//DTD SVG 1.1//EN" "http://www.w3.org/Graphics/SVG/1.1/DTD/svg11.dtd"><svg t="1585201956009" class="icon" viewBox="0 0 1024 1024" version="1.1" xmlns="http://www.w3.org/2000/svg" p-id="7187" xmlns:xlink="http://www.w3.org/1999/xlink" width="44" height="44"><defs><style type="text/css"></style></defs><path d="M512 0c282.760533 0 512 229.239467 512 512 0 282.760533-229.239467 512-512 512-282.760533 0-512-229.239467-512-512C0 229.239467 229.239467 0 512 0z m-18.397867 170.666667c-23.04 0-46.08 8.772267-63.6928 26.385066l-246.033066 246.0672a44.987733 44.987733 0 0 0 57.0368 69.085867v215.04a90.043733 90.043733 0 0 0 90.112 90.112h324.266666a90.077867 90.077867 0 0 0 90.043734-90.112v-215.688533a44.885333 44.885333 0 0 0 58.9824-67.515734l-246.9888-246.9888A89.634133 89.634133 0 0 0 493.568 170.666667z m0 90.043733l161.655467 161.655467v304.878933h-324.266667v-303.889067l162.6112-162.645333z" fill="#1296db" p-id="7188"></path></svg>